<?xml version="1.0" standalone="no"?>
<!DOCTYPE svg PUBLIC "-//W3C//DTD SVG 20010904//EN"
 "http://www.w3.org/TR/2001/REC-SVG-20010904/DTD/svg10.dtd">
<svg version="1.0" xmlns="http://www.w3.org/2000/svg"
 width="300.000000pt" height="300.000000pt" viewBox="0 0 300.000000 300.000000"
 preserveAspectRatio="xMidYMid meet">
<g transform="translate(0.000000,300.000000) scale(0.100000,-0.100000)"
fill="#000000" stroke="none">
<path d="M610 2478 c-99 -53 -138 -173 -88 -268 53 -99 173 -138 268 -88 99
53 138 173 88 268 -53 99 -173 138 -268 88z"/>
<path d="M2210 2478 c-99 -53 -138 -173 -88 -268 53 -99 173 -138 268 -88 99
53 138 173 88 268 -53 99 -173 138 -268 88z"/>
<path d="M1410 1678 c-99 -53 -138 -173 -88 -268 53 -99 173 -138 268 -88 99
53 138 173 88 268 -53 99 -173 138 -268 88z"/>
<path d="M610 878 c-99 -53 -138 -173 -88 -268 53 -99 173 -138 268 -88 99 53
138 173 88 268 -53 99 -173 138 -268 88z"/>
<path d="M2210 878 c-99 -53 -138 -173 -88 -268 53 -99 173 -138 268 -88 99
53 138 173 88 268 -53 99 -173 138 -268 88z"/>
</g>
</svg>
